# xmcd CD database file
#
# Track frame offsets:
#	150
#	19569
#	47867
#	66707
#	87618
#	116531
#	136928
#	168943
#	190763
#	218012
#	239368
#	270164
#	288131
#
# Disc length: 4074 seconds
#
# Revision: 1
# Processed by: cddbd v1.5.2PL0 Copyright (c) Steve Scherf et al.
# Submitted via: CDex 1.70beta2
#
DISCID=b50fe80d
DTITLE=Marsh Dondurma - Fresh Tastes
DYEAR=2007
DGENRE=Jazz
TTITLE0=Abu-Nigun
TTITLE1=Darwish
TTITLE2=Yam
TTITLE3=Zilav Kurvic
TTITLE4=Blue Camel
TTITLE5=Rufus Shmoofus
TTITLE6=Lama Bada
TTITLE7=Kick your ass and Dance
TTITLE8=Little Dogs
TTITLE9=Blue Pepper
TTITLE10=Louis King of the Apes
TTITLE11=The Whoopin' Blues
TTITLE12=Chigra (Marco's Song)
EXTD=YEAR: 2007
EXTT0=
EXTT1=
EXTT2=
EXTT3=
EXTT4=
EXTT5=
EXTT6=
EXTT7=
EXTT8=
EXTT9=
EXTT10=
EXTT11=
EXTT12=
PLAYORDER=
